<svg width="32" height="32" viewBox="0 0 32 32" fill="none" xmlns="http://www.w3.org/2000/svg">
<path d="M31.524 6.58267C30.4107 7.07601 29.2147 7.40934 27.9574 7.56001C29.24 6.79201 30.224 5.57334 30.688 4.12268C29.488 4.83468 28.1587 5.35201 26.744 5.62934C25.6107 4.42401 23.9974 3.66934 22.2107 3.66934C18.7814 3.66934 16 6.45068 16 9.88268C16 10.368 16.056 10.84 16.16 11.296C10.996 11.036 6.42135 8.56268 3.35735 4.80534C2.82402 5.72534 2.51735 6.79201 2.51735 7.92801C2.51735 10.0827 3.61469 11.9853 5.28002 13.0987C4.26135 13.0653 3.30402 12.7867 2.46668 12.3213V12.4013C2.46668 15.4107 4.60669 17.9213 7.44935 18.492C6.92669 18.6333 6.37868 18.708 5.81335 18.708C5.41335 18.708 5.02269 18.6707 4.64402 18.5987C5.43468 21.0653 7.72802 22.8627 10.4467 22.9107C8.32002 24.5773 5.64135 25.5707 2.73202 25.5707C2.23068 25.5707 1.73602 25.5413 1.24935 25.484C3.99868 27.248 7.26268 28.2747 10.7694 28.2747C22.196 28.2747 28.4427 18.8107 28.4427 10.6027C28.4427 10.336 28.436 10.0667 28.424 9.80001C29.6374 8.92268 30.6907 7.83068 31.5214 6.58668L31.524 6.58267Z" fill="#1DA1F2"/>
</svg>
